<svg width="10" height="8" xmlns="http://www.w3.org/2000/svg"><path d="M9.81 2.477a.118.118 0 01.19.091v3.994c0 .518-.42.938-.938.938H.938A.938.938 0 010 6.562V2.57c0-.097.111-.152.19-.091.437.34 1.017.771 3.01 2.218.411.301 1.107.934 1.8.93.697.006 1.406-.64 1.803-.93 1.992-1.447 2.57-1.88 3.008-2.22zM5 5c.453.008 1.105-.57 1.434-.809 2.591-1.88 2.789-2.045 3.386-2.513a.467.467 0 00.18-.37v-.37A.938.938 0 009.062 0H.938A.938.938 0 000 .938v.37c0 .145.066.28.18.37.597.467.795.633 3.386 2.513.329.239.98.817 1.434.809z" fill="#FFF"/></svg>