<svg width="30" height="30" xmlns="http://www.w3.org/2000/svg">
    <g fill="none" fill-rule="evenodd">
        <circle fill="#E5E5E5" cx="15" cy="15" r="15"/>
        <path d="M17.813 7.5c2.588 0 4.687 2.1 4.687 4.688v5.624c0 2.589-2.1 4.688-4.688 4.688h-5.625A4.688 4.688 0 0 1 7.5 17.812v-5.625C7.5 9.6 9.6 7.5 12.188 7.5zm0 1.406h-5.625a3.285 3.285 0 0 0-3.282 3.281v5.626a3.285 3.285 0 0 0 3.281 3.28h5.626a3.285 3.285 0 0 0 3.28-3.28v-5.625a3.285 3.285 0 0 0-3.28-3.282zM15 11.25a3.75 3.75 0 1 1 0 7.5 3.75 3.75 0 0 1 0-7.5zm0 1.406A2.346 2.346 0 0 0 12.656 15 2.347 2.347 0 0 0 15 17.344 2.347 2.347 0 0 0 17.344 15 2.346 2.346 0 0 0 15 12.656zM19.063 10a.937.937 0 1 1 0 1.875.937.937 0 0 1 0-1.875z" fill="#344154" fill-rule="nonzero"/>
    </g>
</svg>
