<svg width="30" height="30" xmlns="http://www.w3.org/2000/svg">
    <g fill="none" fill-rule="evenodd">
        <circle fill="#E5E5E5" cx="15" cy="15" r="15"/>
        <path d="m18.338 8.128-1.764-.003c-1.982 0-3.262 1.316-3.262 3.353v1.546h-1.774a.278.278 0 0 0-.277.278v2.24c0 .154.124.278.277.278h1.774v5.653c0 .153.124.278.277.278h2.314a.278.278 0 0 0 .277-.278V15.82h2.074a.278.278 0 0 0 .278-.278v-2.24a.278.278 0 0 0-.277-.278H16.18v-1.31c0-.63.15-.95.97-.95h1.188a.278.278 0 0 0 .277-.278v-2.08a.278.278 0 0 0-.277-.278z" fill="#344154" fill-rule="nonzero"/>
    </g>
</svg>
